<svg xmlns="http://www.w3.org/2000/svg" id="spades_card_desktop_svg__a" viewBox="0 0 60 90" style="width: 40px; height: 60px;"><defs><linearGradient id="spades_card_desktop_svg__d" x1="-1291.54" x2="-1291.54" y1="-1558.92" y2="-1492.82" gradientTransform="matrix(.82575 -.2016 .00075 .9983 1101.43 1309.19)" gradientUnits="userSpaceOnUse"><stop offset="0" stop-color="#3c4591"></stop><stop offset="1" stop-color="#232a60"></stop></linearGradient><linearGradient id="spades_card_desktop_svg__e" x1="14.25" x2="47.14" y1="16.95" y2="73.93" gradientUnits="userSpaceOnUse"><stop offset="0" stop-color="#fcfcfc"></stop><stop offset="1" stop-color="#e7e7e7"></stop></linearGradient><filter id="spades_card_desktop_svg__b" filterUnits="userSpaceOnUse"><feOffset dx="2" dy="2"></feOffset><feGaussianBlur result="c" stdDeviation="3"></feGaussianBlur><feFlood flood-color="#524ea1" flood-opacity="0.5"></feFlood><feComposite in2="c" operator="in"></feComposite><feComposite in="SourceGraphic"></feComposite></filter><style>.spades_card_desktop_svg__h{stroke-width:0}</style></defs><g style="filter: url(&quot;#spades_card_desktop_svg__b&quot;);"><path d="m47.95 73.61-35.13 8.48c-1.41.34-2.77-.72-2.77-2.17V18.8c0-1.2.82-2.24 1.99-2.52l34.44-8.36a2.8 2.8 0 0 1 3.47 2.72v60.24c0 1.13-.89 2.47-2 2.74Z" style="stroke-width: 0; fill: url(&quot;#spades_card_desktop_svg__d&quot;);"></path><path d="m47.56 73.55-33.84 8.26c-1.08.26-2.12-.55-2.12-1.67V20.17c0-1.35.92-2.53 2.24-2.85l33.84-8.26c1.08-.26 2.12.55 2.12 1.67V70.7c0 1.35-.92 2.53-2.24 2.85" style="stroke-width: 0; fill: url(&quot;#spades_card_desktop_svg__e&quot;);"></path><path d="M38.83 43.07c-.76-1.92-2.03-2.97-3.06-3.91-1.02-.94-1.8-1.65-3.1-3.4s-1.89-3.04-1.89-3.04-.59 1.58-1.89 3.97-2.08 3.48-3.1 4.92-2.3 3.12-3.06 5.41-.82 5.16.59 6.32 3.85 1.59 6.72-1.11c-.05.61-.2 1.57-.48 2.65-.27 1.02-.76 1.98-1.03 2.5s-.84 1.41-.84 1.41l6.21-1.52s-.56-.62-.84-1-.77-1.1-1.03-1.99c-.29-.95-.43-1.83-.48-2.42 2.87 1.29 5.31-.33 6.72-2.19s1.35-4.69.59-6.61ZM20.85 24.47c-.31-.78-.83-1.21-1.25-1.59s-.73-.67-1.26-1.38-.77-1.24-.77-1.24-.24.64-.77 1.62c-.53.97-.85 1.42-1.26 2.01-.42.59-.94 1.27-1.25 2.21-.31.93-.34 2.1.24 2.58.58.47 1.57.65 2.74-.45-.02.25-.08.64-.2 1.08-.11.42-.31.81-.42 1.02s-.34.58-.34.58l2.53-.62s-.23-.25-.34-.41-.31-.45-.42-.81c-.12-.39-.18-.75-.2-.99 1.17.53 2.16-.14 2.74-.89.58-.76.55-1.91.24-2.7ZM40.7 66.3c.31.78.83 1.21 1.25 1.59s.73.67 1.26 1.38.77 1.24.77 1.24.24-.64.77-1.62c.53-.97.85-1.42 1.26-2.01.42-.59.94-1.27 1.25-2.21.31-.93.34-2.1-.24-2.58-.58-.47-1.57-.65-2.74.45.02-.25.08-.64.2-1.08a5 5 0 0 1 .42-1.02c.11-.21.34-.58.34-.58l-2.53.62s.23.25.34.41.31.45.42.81c.12.39.18.75.2.99-1.17-.53-2.16.14-2.74.89-.58.76-.55 1.91-.24 2.7Z" class="spades_card_desktop_svg__h"></path></g></svg>