<svg xmlns="http://www.w3.org/2000/svg" id="clubs_card_desktop_svg__a" viewBox="0 0 60 90" style="width: 40px; height: 60px;"><defs><linearGradient id="clubs_card_desktop_svg__d" x1="-1291.54" x2="-1291.54" y1="-1558.92" y2="-1492.82" gradientTransform="matrix(.82575 -.2016 .00075 .9983 1101.43 1309.19)" gradientUnits="userSpaceOnUse"><stop offset="0" stop-color="#3c4591"></stop><stop offset="1" stop-color="#232a60"></stop></linearGradient><linearGradient id="clubs_card_desktop_svg__e" x1="14.25" x2="47.14" y1="16.95" y2="73.93" gradientUnits="userSpaceOnUse"><stop offset="0" stop-color="#fcfcfc"></stop><stop offset="1" stop-color="#e7e7e7"></stop></linearGradient><filter id="clubs_card_desktop_svg__b" filterUnits="userSpaceOnUse"><feOffset dx="2" dy="2"></feOffset><feGaussianBlur result="c" stdDeviation="3"></feGaussianBlur><feFlood flood-color="#524ea1" flood-opacity="0.5"></feFlood><feComposite in2="c" operator="in"></feComposite><feComposite in="SourceGraphic"></feComposite></filter><style>.clubs_card_desktop_svg__h{stroke-width:0}</style></defs><g style="filter: url(&quot;#clubs_card_desktop_svg__b&quot;);"><path d="m47.95 73.61-35.13 8.48c-1.41.34-2.77-.72-2.77-2.17V18.8c0-1.2.82-2.24 1.99-2.52l34.44-8.36a2.8 2.8 0 0 1 3.47 2.72v60.24c0 1.13-.89 2.47-2 2.74Z" style="stroke-width: 0; fill: url(&quot;#clubs_card_desktop_svg__d&quot;);"></path><path d="m47.56 73.55-33.84 8.26c-1.08.26-2.12-.55-2.12-1.67V20.17c0-1.35.92-2.53 2.24-2.85l33.84-8.26c1.08-.26 2.12.55 2.12 1.67V70.7c0 1.35-.92 2.53-2.24 2.85" style="stroke-width: 0; fill: url(&quot;#clubs_card_desktop_svg__e&quot;);"></path><path d="M35.8 41.44c-1.1.27-2.18.95-3.05 1.65.38-.49.76-1.04 1.07-1.62.92-1.74 1.57-4.1 1.22-6.25-.33-2.02-1.9-3.04-4.22-2.47s-3.89 2.36-4.22 4.54c-.35 2.32.3 4.36 1.22 5.65.33.47.75.86 1.17 1.18-.9-.3-2.05-.5-3.23-.21-2.58.63-4.08 3.54-4.08 5.89s1.13 4.68 3.86 4.01 4.3-3.61 4.3-3.61-.11.79-.45 2.61-.92 3.21-1.52 4.31c-.54.99-1.16 1.91-1.16 1.91l8.15-2s-.62-.62-1.16-1.34c-.61-.8-1.18-1.91-1.52-3.56s-.45-2.39-.45-2.39 1.57 2.17 4.3 1.5 3.86-3.56 3.86-5.91-1.5-4.52-4.08-3.88ZM19.75 24.04c-.45.11-.89.39-1.24.67.16-.2.31-.42.43-.66.38-.71.64-1.67.5-2.55-.14-.82-.77-1.24-1.72-1-.95.23-1.58.96-1.72 1.85-.14.95.12 1.78.5 2.3.14.19.31.35.48.48-.37-.12-.83-.2-1.31-.09-1.05.26-1.66 1.44-1.66 2.4s.46 1.91 1.57 1.63c1.11-.27 1.75-1.47 1.75-1.47s-.04.32-.18 1.06a5.6 5.6 0 0 1-.62 1.75c-.22.4-.47.78-.47.78l3.32-.81s-.25-.25-.47-.54c-.25-.33-.48-.78-.62-1.45s-.18-.97-.18-.97.64.88 1.75.61 1.57-1.45 1.57-2.4-.61-1.84-1.66-1.58ZM41.8 66.73c.45-.11.89-.39 1.24-.67-.16.2-.31.42-.43.66-.38.71-.64 1.67-.5 2.55.14.82.77 1.24 1.72 1s1.58-.96 1.72-1.85c.14-.95-.12-1.78-.5-2.3-.14-.19-.31-.35-.48-.48.37.12.83.2 1.31.09 1.05-.26 1.66-1.44 1.66-2.4s-.46-1.91-1.57-1.63-1.75 1.47-1.75 1.47.04-.32.18-1.06.37-1.31.62-1.75c.22-.4.47-.78.47-.78l-3.32.81s.25.25.47.54c.25.33.48.78.62 1.45s.18.97.18.97-.64-.88-1.75-.61-1.57 1.45-1.57 2.4.61 1.84 1.66 1.58Z" class="clubs_card_desktop_svg__h"></path></g></svg>