<svg xmlns="http://www.w3.org/2000/svg" id="diamonds_card_desktop_svg__a" viewBox="0 0 60 90" style="width: 40px; height: 60px;"><defs><linearGradient id="diamonds_card_desktop_svg__d" x1="-1291.54" x2="-1291.54" y1="-1558.92" y2="-1492.82" gradientTransform="matrix(.82575 -.2016 .00075 .9983 1101.43 1309.19)" gradientUnits="userSpaceOnUse"><stop offset="0" stop-color="#3c4591"></stop><stop offset="1" stop-color="#232a60"></stop></linearGradient><linearGradient id="diamonds_card_desktop_svg__e" x1="14.25" x2="47.14" y1="16.95" y2="73.93" gradientUnits="userSpaceOnUse"><stop offset="0" stop-color="#fcfcfc"></stop><stop offset="1" stop-color="#e7e7e7"></stop></linearGradient><filter id="diamonds_card_desktop_svg__b" filterUnits="userSpaceOnUse"><feOffset dx="2" dy="2"></feOffset><feGaussianBlur result="c" stdDeviation="3"></feGaussianBlur><feFlood flood-color="#524ea1" flood-opacity="0.5"></feFlood><feComposite in2="c" operator="in"></feComposite><feComposite in="SourceGraphic"></feComposite></filter><style>.diamonds_card_desktop_svg__h{fill:#ef4043;stroke-width:0}</style></defs><g style="filter: url(&quot;#diamonds_card_desktop_svg__b&quot;);"><path d="m47.95 73.61-35.13 8.48c-1.41.34-2.77-.72-2.77-2.17V18.8c0-1.2.82-2.24 1.99-2.52l34.44-8.36a2.8 2.8 0 0 1 3.47 2.72v60.24c0 1.13-.89 2.47-2 2.74Z" style="stroke-width: 0; fill: url(&quot;#diamonds_card_desktop_svg__d&quot;);"></path><path d="m47.56 73.55-33.84 8.26c-1.08.26-2.12-.55-2.12-1.67V20.17c0-1.35.92-2.53 2.24-2.85l33.84-8.26c1.08-.26 2.12.55 2.12 1.67V70.7c0 1.35-.92 2.53-2.24 2.85" style="stroke-width: 0; fill: url(&quot;#diamonds_card_desktop_svg__e&quot;);"></path><path d="M34.49 38.68c-2.15-3.25-3.72-5.96-3.72-5.96s-1.57 3.48-3.72 7.79-3.41 6.63-3.41 6.63 1.26 1.7 3.41 4.95 3.72 5.96 3.72 5.96 1.57-3.48 3.72-7.79 3.41-6.63 3.41-6.63-1.26-1.7-3.41-4.95M19.39 22.48c-.87-1.31-1.5-2.4-1.5-2.4s-.63 1.4-1.5 3.14-1.37 2.67-1.37 2.67.51.69 1.37 2c.87 1.31 1.5 2.4 1.5 2.4s.63-1.4 1.5-3.14 1.37-2.67 1.37-2.67-.51-.69-1.37-2M45.16 62.88c-.87-1.31-1.5-2.4-1.5-2.4s-.63 1.4-1.5 3.14-1.37 2.67-1.37 2.67.51.69 1.37 2c.87 1.31 1.5 2.4 1.5 2.4s.63-1.4 1.5-3.14 1.37-2.67 1.37-2.67-.51-.69-1.37-2" class="diamonds_card_desktop_svg__h"></path></g></svg>