<svg xmlns="http://www.w3.org/2000/svg" id="hearts_card_desktop_svg__a" viewBox="0 0 60 90" style="width: 40px; height: 60px;"><defs><linearGradient id="hearts_card_desktop_svg__d" x1="-1291.54" x2="-1291.54" y1="-1558.92" y2="-1492.82" gradientTransform="matrix(.82575 -.2016 .00075 .9983 1101.43 1309.19)" gradientUnits="userSpaceOnUse"><stop offset="0" stop-color="#3c4591"></stop><stop offset="1" stop-color="#232a60"></stop></linearGradient><linearGradient id="hearts_card_desktop_svg__e" x1="14.25" x2="47.14" y1="16.95" y2="73.93" gradientUnits="userSpaceOnUse"><stop offset="0" stop-color="#fcfcfc"></stop><stop offset="1" stop-color="#e7e7e7"></stop></linearGradient><filter id="hearts_card_desktop_svg__b" filterUnits="userSpaceOnUse"><feOffset dx="2" dy="2"></feOffset><feGaussianBlur result="c" stdDeviation="3"></feGaussianBlur><feFlood flood-color="#524ea1" flood-opacity="0.5"></feFlood><feComposite in2="c" operator="in"></feComposite><feComposite in="SourceGraphic"></feComposite></filter><style>.hearts_card_desktop_svg__h{fill:#ef4043;stroke-width:0}</style></defs><g style="filter: url(&quot;#hearts_card_desktop_svg__b&quot;);"><path d="m47.95 73.61-35.13 8.48c-1.41.34-2.77-.72-2.77-2.17V18.8c0-1.2.82-2.24 1.99-2.52l34.44-8.36a2.8 2.8 0 0 1 3.47 2.72v60.24c0 1.13-.89 2.47-2 2.74Z" style="stroke-width: 0; fill: url(&quot;#hearts_card_desktop_svg__d&quot;);"></path><path d="m47.56 73.55-33.84 8.26c-1.08.26-2.12-.55-2.12-1.67V20.17c0-1.35.92-2.53 2.24-2.85l33.84-8.26c1.08-.26 2.12.55 2.12 1.67V70.7c0 1.35-.92 2.53-2.24 2.85" style="stroke-width: 0; fill: url(&quot;#hearts_card_desktop_svg__e&quot;);"></path><path d="M40.32 33.87c-.65-1.79-2.22-2.74-4.21-2.38-3.64.67-5.12 5.02-5.31 5.64 0 .03-.04.03-.04.01-.19-.53-1.67-4.15-5.31-3.03-1.99.61-3.56 2.34-4.21 4.45-.56 1.83-.19 4.26.67 5.63 1.74 2.8 4.48 5.71 6.09 8.02 1.57 2.26 2.34 4.61 2.64 5.67.05.16.25.11.3-.07.3-1.21 1.07-3.94 2.64-6.97 1.6-3.09 4.34-7.36 6.09-11.01.85-1.79 1.23-4.41.67-5.96ZM21.85 20.88c-.27-.73-.91-1.12-1.72-.97-1.48.27-2.09 2.05-2.17 2.3 0 .01-.01.01-.02 0-.08-.22-.68-1.69-2.17-1.24-.81.25-1.45.95-1.72 1.81-.23.75-.08 1.74.27 2.3.71 1.14 1.83 2.33 2.48 3.27.64.92.96 1.88 1.08 2.32.02.07.1.05.12-.03.12-.49.44-1.61 1.08-2.85.65-1.26 1.77-3 2.48-4.49.35-.73.5-1.8.27-2.43ZM39.7 69.89c.27.73.91 1.12 1.72.97 1.48-.27 2.09-2.05 2.17-2.3 0-.01.01-.01.02 0 .08.22.68 1.69 2.17 1.24.81-.25 1.45-.95 1.72-1.81.23-.75.08-1.74-.27-2.3-.71-1.14-1.83-2.33-2.48-3.27-.64-.92-.96-1.88-1.08-2.32-.02-.07-.1-.05-.12.03-.12.49-.44 1.61-1.08 2.85-.65 1.26-1.77 3-2.48 4.49-.35.73-.5 1.8-.27 2.43Z" class="hearts_card_desktop_svg__h"></path></g></svg>